<svg width="87" height="28" viewBox="0 0 87 28" fill="none" xmlns="http://www.w3.org/2000/svg">
<path d="M8.51496 11.978V6.18065L6.67035 10.2574H5.05825L3.21363 6.18065V11.978H0.190944V0.972328H3.49265L5.8643 6.14965L8.25145 0.972328H11.5377V11.978H8.51496Z" fill="#1306AA"/>
<path d="M16.3664 0.972328H19.7457L23.2489 11.978H20.1797L19.5131 9.82338H16.5835L15.9324 11.978H12.8477L16.3664 0.972328ZM19.0326 7.80825L18.056 3.93301L17.033 7.80825H19.0326Z" fill="#1306AA"/>
<path d="M24.5663 11.978V0.972328H29.6196C30.157 0.972328 30.653 1.08083 31.1077 1.29785C31.5624 1.51486 31.9551 1.80938 32.2858 2.1814C32.6165 2.54309 32.8697 2.95128 33.0454 3.40598C33.2314 3.86067 33.3244 4.32054 33.3244 4.78557C33.3244 5.41594 33.1849 6.01014 32.9059 6.56818C32.6268 7.12621 32.2393 7.58091 31.7433 7.93226L34.0684 11.978H30.7512L28.8136 8.5988H27.589V11.978H24.5663ZM27.589 5.96364H29.4956C29.6817 5.96364 29.8522 5.8603 30.0072 5.65362C30.1725 5.44694 30.2552 5.15759 30.2552 4.78557C30.2552 4.40321 30.1622 4.11386 29.9762 3.91751C29.7902 3.71083 29.6041 3.60749 29.4181 3.60749H27.589V5.96364Z" fill="#1306AA"/>
<path d="M35.4295 11.978V0.972328H38.4522V5.15759L41.8004 0.972328H45.2106L41.2113 5.90164L45.4896 11.978H42.0174L39.2892 7.93226L38.4522 8.80032V11.978H35.4295Z" fill="#1306AA"/>
<path d="M54.3783 9.34285V11.978H46.5348V0.972328H54.2388V3.60749H49.5575V5.15759H53.5568V7.60674H49.5575V9.34285H54.3783Z" fill="#1306AA"/>
<path d="M56.187 11.978V0.972328H59.2097V9.34285H64.201V11.978H56.187Z" fill="#1306AA"/>
<path d="M70.4815 12.071C69.6445 12.071 68.8849 11.916 68.2029 11.606C67.5208 11.2856 66.9318 10.8619 66.4358 10.3349C65.9501 9.79754 65.5729 9.19817 65.3042 8.5368C65.0458 7.86509 64.9167 7.17271 64.9167 6.45967C64.9167 5.72596 65.0562 5.02841 65.3352 4.36704C65.6142 3.70567 66.0017 3.11663 66.4978 2.59993C67.0041 2.0729 67.5983 1.65954 68.2804 1.35985C68.9728 1.06017 69.7271 0.910324 70.5435 0.910324C71.3806 0.910324 72.1401 1.0705 72.8222 1.39085C73.5042 1.70087 74.0881 2.12457 74.5738 2.66193C75.0595 3.1993 75.4315 3.80384 75.6898 4.47555C75.9585 5.13692 76.0929 5.81896 76.0929 6.52167C76.0929 7.24505 75.9534 7.93743 75.6743 8.5988C75.4057 9.26018 75.0181 9.85438 74.5118 10.3814C74.0157 10.8981 73.4267 11.3115 72.7447 11.6215C72.0626 11.9212 71.3082 12.071 70.4815 12.071ZM67.9859 6.49067C67.9859 6.97637 68.0737 7.4414 68.2494 7.88576C68.4354 8.33012 68.7144 8.69181 69.0864 8.97083C69.4688 9.24984 69.9442 9.38935 70.5125 9.38935C71.1016 9.38935 71.5769 9.24468 71.9386 8.95533C72.3106 8.66597 72.5845 8.29912 72.7602 7.85476C72.9358 7.40006 73.0237 6.93503 73.0237 6.45967C73.0237 5.96364 72.9307 5.49861 72.7447 5.06458C72.5587 4.63056 72.2796 4.2792 71.9076 4.01052C71.5356 3.7315 71.0654 3.59199 70.497 3.59199C69.9183 3.59199 69.443 3.73667 69.0709 4.02602C68.6989 4.30504 68.4251 4.66672 68.2494 5.11109C68.0737 5.54511 67.9859 6.00497 67.9859 6.49067Z" fill="#1306AA"/>
<path d="M79.4617 0.972328L81.6163 8.4903L83.7399 0.972328H86.9176L83.1199 11.978H80.1127L76.2685 0.972328H79.4617Z" fill="#1306AA"/>
<path d="M4.73484 27.5678C3.89638 27.5678 3.17629 27.4297 2.57457 27.1535C1.97285 26.8773 1.47964 26.4975 1.09493 26.0141C0.72009 25.5308 0.443891 24.9784 0.266335 24.3569C0.0887783 23.7256 0 23.0647 0 22.3742V16.9736H2.88529V22.3742C2.88529 22.8378 2.94448 23.2719 3.06285 23.6763C3.19109 24.0709 3.38837 24.3915 3.65471 24.6381C3.9309 24.8847 4.29095 25.008 4.73484 25.008C5.1886 25.008 5.54864 24.8847 5.81498 24.6381C6.09117 24.3816 6.28846 24.0561 6.40683 23.6615C6.53507 23.2571 6.59918 22.828 6.59918 22.3742V16.9736H9.48448V22.3742C9.48448 23.3508 9.31185 24.2336 8.9666 25.0228C8.63122 25.8021 8.11335 26.4235 7.41298 26.8871C6.71262 27.3409 5.81991 27.5678 4.73484 27.5678Z" fill="#1306AA"/>
<path d="M14.4733 22.315V27.479H11.588V16.9736H13.837L18.054 22.315V16.9736H20.9393V27.479H18.6459L14.4733 22.315Z" fill="#1306AA"/>
<path d="M25.2141 16.9736L27.2708 24.1498L29.2979 16.9736H32.3311L28.706 27.479H25.8355L22.166 16.9736H25.2141Z" fill="#1306AA"/>
<path d="M41.0591 24.9636V27.479H33.5722V16.9736H40.926V19.4889H36.4575V20.9686H40.2749V23.3064H36.4575V24.9636H41.0591Z" fill="#1306AA"/>
<path d="M42.8448 27.479V16.9736H47.6684C48.1813 16.9736 48.6548 17.0771 49.0888 17.2843C49.5229 17.4914 49.8977 17.7726 50.2134 18.1277C50.529 18.4729 50.7707 18.8626 50.9384 19.2966C51.1159 19.7306 51.2047 20.1696 51.2047 20.6135C51.2047 21.2152 51.0715 21.7824 50.8052 22.315C50.5389 22.8477 50.169 23.2817 49.6955 23.6171L51.9149 27.479H48.7485L46.899 24.2534H45.73V27.479H42.8448ZM45.73 21.738H47.55C47.7276 21.738 47.8903 21.6393 48.0383 21.4421C48.1961 21.2448 48.275 20.9686 48.275 20.6135C48.275 20.2485 48.1862 19.9723 48.0087 19.7849C47.8311 19.5876 47.6536 19.4889 47.476 19.4889H45.73V21.738Z" fill="#1306AA"/>
<path d="M59.6357 20.4063C59.6357 20.4063 59.5519 20.357 59.3842 20.2583C59.2165 20.1597 58.9946 20.0512 58.7184 19.9328C58.4422 19.8046 58.1413 19.6912 57.8158 19.5925C57.4903 19.4939 57.1697 19.4445 56.854 19.4445C56.6074 19.4445 56.4052 19.484 56.2474 19.5629C56.0896 19.6418 56.0106 19.775 56.0106 19.9624C56.0106 20.2386 56.1833 20.4359 56.5285 20.5543C56.8836 20.6628 57.362 20.8157 57.9638 21.013C58.6148 21.2102 59.1771 21.4371 59.6506 21.6936C60.124 21.9501 60.489 22.2805 60.7455 22.685C61.002 23.0795 61.1302 23.6073 61.1302 24.2682C61.1302 24.8995 61.0167 25.4321 60.7899 25.8662C60.563 26.2903 60.2572 26.6307 59.8725 26.8871C59.4878 27.1436 59.0587 27.331 58.5852 27.4494C58.1117 27.5579 57.6284 27.6121 57.1352 27.6121C56.6321 27.6121 56.1044 27.5628 55.552 27.4642C55.0094 27.3557 54.4817 27.2126 53.9687 27.0351C53.4558 26.8477 52.9873 26.6307 52.5631 26.384L53.806 23.8539C53.806 23.8539 53.9046 23.9131 54.1019 24.0314C54.2992 24.1498 54.5606 24.283 54.8861 24.4309C55.2116 24.5789 55.5717 24.7121 55.9662 24.8304C56.3707 24.9488 56.7751 25.008 57.1796 25.008C57.4952 25.008 57.7122 24.9685 57.8306 24.8896C57.9588 24.8008 58.0229 24.6874 58.0229 24.5493C58.0229 24.3421 57.9144 24.1843 57.6974 24.0758C57.4804 23.9574 57.1944 23.8489 56.8392 23.7503C56.494 23.6418 56.1093 23.5185 55.6851 23.3804C54.7579 23.0647 54.0822 22.6899 53.658 22.2559C53.2339 21.812 53.0218 21.2053 53.0218 20.4359C53.0218 19.6566 53.2043 19.0056 53.5692 18.4828C53.9342 17.96 54.4126 17.5654 55.0045 17.2991C55.6062 17.0229 56.2523 16.8848 56.9428 16.8848C57.4558 16.8848 57.949 16.9489 58.4224 17.0771C58.9058 17.1955 59.3546 17.3435 59.7689 17.521C60.1931 17.6986 60.563 17.8663 60.8786 18.0241L59.6357 20.4063Z" fill="#1306AA"/>
<path d="M62.8493 27.479V16.9736H65.7346V27.479H62.8493Z" fill="#1306AA"/>
<path d="M76.1717 19.4889H73.1533V27.479H70.268V19.4889H67.2347V16.9736H76.1717V19.4889Z" fill="#1306AA"/>
<path d="M79.7972 16.9736L81.6763 21.2645L83.5999 16.9736H86.7367L83.1116 24.0018V27.479H80.2411V23.9722L76.6752 16.9736H79.7972Z" fill="#1306AA"/>
</svg>
